<?xml version="1.0" encoding="UTF-8"?>
<svg id="Layer_1" xmlns="http://www.w3.org/2000/svg" version="1.1" viewBox="0 0 1915 507">
  <!-- Generator: Adobe Illustrator 29.8.1, SVG Export Plug-In . SVG Version: 2.1.1 Build 2)  -->
  <path d="M506.9970703,0L0,.0029297l.0026855,506.9970703h3.5l503.4973145-.0029297-.0029297-506.9970703ZM110.5529785,319.4003906l186.0102539,77.0466309-186.0097656.0012207-.0004883-77.0478516ZM111.6247559,312.2675781l83.107666-200.6425781,200.6430664,83.1074219-83.1079102,200.6425781-200.6428223-83.1074219ZM396.4472656,210.4362793l.0009766,186.0100098-77.0473633.0004883,77.0463867-186.010498ZM396.4472656,187.5996094l-186.010498-77.0466309,186.0100098-.0012207.0004883,77.0478516ZM110.5527344,296.5629883l-.0009766-186.0092773,77.0473633-.0004883-77.0463867,186.0097656ZM103.5517578,112.291748l.0014648,270.0605469L8.072998,151.8398438l95.4787598-39.5480957ZM382.3525391,403.4462891l-230.5129395,95.4804688-39.5480957-95.4785156,270.0610352-.0019531ZM403.4482422,394.7084961l-.0014648-270.0603027,95.4804688,230.5119629-95.4790039,39.5483398ZM124.6477051,103.5537109L355.1604004,8.0732422l39.5480957,95.4785156-270.060791.0019531ZM18.4150391,139.9790039L151.3925781,7.0019531l188.0644531-.0009766L18.4150391,139.9790039ZM7.0009766,167.5429688l132.9770508,321.0402832L7.0019531,355.6071777l-.0009766-188.064209ZM488.5837402,367.0212402l-132.9763184,132.9768066-188.0644531.0009766,321.0407715-132.9777832ZM367.0219727,18.4165039l132.9760742,132.9760742.0009766,188.0649414L367.0219727,18.4165039ZM499.9978027,141.4931641L365.5048828,7.0007324l134.4921875-.0007324.0007324,134.4931641ZM141.4936523,7.0021973L7.0007324,141.4946289l-.0007324-134.4916992,134.4936523-.0007324ZM7.0019531,365.5061035l134.4931641,134.4931641-134.4924316.0007324-.0007324-134.4938965ZM365.5063477,499.9978027l134.4929199-134.4926758.0007324,134.4919434-134.4936523.0007324Z" fill="#4e6b66"/>
  <g>
    <path d="M1176.2116885,361.8908314c-1.7141436,10.7097298-8.138083,15.8524483-18.4236637,15.8524483h-84.3958987v-113.5337509h86.5387939v-25.7048187h-86.5387939v-109.2481042h80.1147107c10.2809782,0,16.2764536,5.569025,18.4193488,15.4238405l9.4283651,44.9835405h25.7048187v-86.1123435h-244.2010271v25.7049625h23.9906751c10.281122,0,16.2809123,5.9976328,16.2809123,16.2809123v215.9247054c0,10.281122-5.9997902,16.2810561-16.2809123,16.2810561h-31.2852061c-9.8569729,0-16.7095201-4.2856466-20.1379511-14.1381609l-95.538695-260.0534754h-56.1240356l-91.2526169,260.0534754c-3.4288625,9.4240502-9.4285089,14.1381609-19.7096309,14.1381609h-15.8524483v25.7049625h109.2481042v-25.7049625h-27.4191061c-10.281122,0-15.8478458-4.7141106-15.8478458-12.8524812,0-2.1427514.4286078-4.7141106,1.2812209-7.2854698l17.1379841-50.1242454h100.6812696l17.1381279,50.1242454c.8570718,2.5713592,1.2856796,5.1427184,1.2856796,7.2854698,0,8.1383706-5.5713262,12.8524812-15.8524483,12.8524812h-25.7048187v25.7049625h392.0199511v-99.39559h-25.7094212l-8.9954424,57.8381792ZM749.9200842,281.7762645l41.9860186-122.9578011,41.5525206,122.9578011h-83.5385392Z" fill="#2d2d29"/>
    <path d="M1357.8738018,276.6334023h51.409925v38.988209c0,41.9837173-14.56231,71.9741827-47.1242784,71.9741827-41.557267,0-55.2669638-49.2670298-55.2669638-125.0982512,0-102.8218636,25.2763547-142.6671444,70.6908043-142.6671444,40.7001952,0,65.119478,32.5618245,74.9719923,91.255062h25.7048187v-91.255062c-25.2763547-11.9954095-60.8336876-23.5622111-100.6768109-23.5622111-95.1099434,0-146.0955754,65.9765498-146.0955754,162.8007806,0,88.2552387,41.9857309,152.0888934,120.8192207,152.0888934,43.6957035,0,69.8335887-19.7048846,81.4003903-54.4097482l20.1334924,46.7001292h25.7049625v-128.0982183h20.9951667v-24.4214403h-142.6671444v25.7048187Z" fill="#2d2d29"/>
    <path d="M1516.839837,129.2566059h28.2763217c10.281122,0,16.2764536,5.9976328,16.2764536,16.2809123v215.9247054c0,10.281122-5.9953316,16.2810561-16.2764536,16.2810561h-28.2763217v25.7049625h159.3722058v-25.7049625h-28.2763217c-10.281122,0-16.2809123-5.9999341-16.2809123-16.2810561v-215.9247054c0-10.2832795,5.9997902-16.2809123,16.2809123-16.2809123h28.2763217v-25.7049625h-159.3722058v25.7049625Z" fill="#2d2d29"/>
    <path d="M1839.8789563,226.9377647l-41.5574108-14.5666248c-30.8432223-10.7118873-55.6954278-24.4214403-55.6954278-52.266853,0-26.9929434,23.1379181-42.4146264,49.2714884-42.4146264,30.4190731,0,65.1193342,20.9930093,73.2577048,73.2600061h25.7048187v-71.5478761c-29.9860066-14.9930752-64.6908702-23.1336033-96.8197721-23.1336033-56.9811074,0-105.8241319,25.2763547-105.8241319,88.2552387,0,54.838356,36.847615,76.6884371,76.2621305,89.5407745l40.2717312,13.2810891c29.1332497,9.4262077,51.4097812,26.5620343,51.4097812,54.4075908,0,31.7047527-29.1333935,47.985665-56.5526434,47.985665-33.4145815,0-68.5479091-23.9905312-76.6861359-88.2550949h-25.7049625v81.8266969c29.5575427,17.9953435,66.8337655,27.8477139,101.9626344,27.8477139,60.4095384,0,115.2478945-29.1289348,115.2478945-94.6790343,0-52.697762-35.1333276-75.8313653-74.5476993-89.5410622Z" fill="#2d2d29"/>
  </g>
</svg>